<?xml version="1.0" encoding="utf-8"?>
<!-- Generator: Adobe Illustrator 19.0.0, SVG Export Plug-In . SVG Version: 6.00 Build 0)  -->
<svg version="1.1" id="Layer_1" xmlns="http://www.w3.org/2000/svg" xmlns:xlink="http://www.w3.org/1999/xlink" x="0px" y="0px"
	 viewBox="0 0 216.5 60.2" style="enable-background:new 0 0 216.5 60.2;" xml:space="preserve">
<style type="text/css">
	.st0{fill:#333333;}
</style>
<g>
	<g id="XMLID_234_">
		<g id="XMLID_238_">
			<g id="XMLID_263_">
				<path id="XMLID_264_" class="st0" d="M69.4,30.9c1.5,0,2.4-0.8,2.4-2v0c0-1.3-1-2-2.4-2H67v4.1H69.4z M65.1,25h4.5
					c2.6,0,4.3,1.5,4.3,3.8v0c0,2.5-2,3.9-4.5,3.9H67v3.6h-2V25z"/>
			</g>
			<polygon id="XMLID_262_" class="st0" points="78.7,25 80.7,25 80.7,34.5 86.7,34.5 86.7,36.3 78.7,36.3 			"/>
			<g id="XMLID_257_">
				<path id="XMLID_261_" class="st0" d="M91.1,31.5V25h2v6.4c0,2.1,1.1,3.2,2.9,3.2c1.8,0,2.8-1.1,2.8-3.1V25h2v6.4
					c0,3.4-1.9,5.1-4.9,5.1C93,36.5,91.1,34.8,91.1,31.5"/>
				<path id="XMLID_258_" class="st0" d="M111.3,30.6c1.4,0,2.3-0.7,2.3-1.9v0c0-1.2-0.9-1.9-2.3-1.9h-2.9v3.8H111.3z M106.4,25h5
					c1.4,0,2.5,0.4,3.3,1.1c0.6,0.6,0.9,1.5,0.9,2.4v0c0,1.9-1.1,3-2.7,3.4l3,4.3h-2.3l-2.8-3.9h-2.5v3.9h-2V25z"/>
			</g>
			<path id="XMLID_254_" class="st0" d="M127.8,31.8l-2-4.5l-1.9,4.5H127.8z M125,25h1.8l5,11.4h-2.1l-1.1-2.7h-5.3l-1.2,2.7h-2
				L125,25z"/>
			<polygon id="XMLID_253_" class="st0" points="136.6,25 138.6,25 138.6,34.5 144.5,34.5 144.5,36.3 136.6,36.3 			"/>
			<g id="XMLID_251_">
				<path id="XMLID_252_" class="st0" d="M148.7,34.7l1.2-1.4c1.1,0.9,2.2,1.5,3.6,1.5c1.2,0,2-0.6,2-1.4v0c0-0.8-0.5-1.2-2.5-1.7
					c-2.4-0.6-3.8-1.3-3.8-3.4v0c0-1.9,1.6-3.3,3.9-3.3c1.6,0,3,0.5,4.1,1.4l-1.1,1.5c-1-0.8-2-1.2-3.1-1.2c-1.2,0-1.8,0.6-1.8,1.3
					v0c0,0.9,0.5,1.3,2.7,1.8c2.4,0.6,3.6,1.4,3.6,3.3v0c0,2.1-1.7,3.4-4,3.4C151.7,36.5,150.1,35.9,148.7,34.7"/>
			</g>
			<rect id="XMLID_250_" x="162.8" y="25" class="st0" width="2" height="11.3"/>
			<g id="XMLID_248_">
				<path id="XMLID_249_" class="st0" d="M170.2,30.7L170.2,30.7c0-3.2,2.4-5.9,5.8-5.9c2,0,3.2,0.5,4.3,1.5l-1.3,1.5
					c-0.9-0.7-1.7-1.2-3.2-1.2c-2.1,0-3.7,1.8-3.7,4v0c0,2.3,1.5,4,3.8,4c1.1,0,2-0.3,2.7-0.9v-2.1H176V30h4.8v4.7
					c-1.1,1-2.7,1.8-4.7,1.8C172.5,36.5,170.2,34,170.2,30.7"/>
			</g>
			<polygon id="XMLID_247_" class="st0" points="186.2,25 188.2,25 188.2,29.7 193.6,29.7 193.6,25 195.6,25 195.6,36.3 193.6,36.3 
				193.6,31.6 188.2,31.6 188.2,36.3 186.2,36.3 			"/>
			<polygon id="XMLID_246_" class="st0" points="200.6,25 200.6,26.9 204.2,26.9 204.2,36.3 206.2,36.3 206.2,26.9 209.8,26.9 
				209.8,25 			"/>
			<g id="XMLID_239_">
				<path id="XMLID_243_" class="st0" d="M25.9,22.3v17l14.7-8.5L25.9,22.3z M24.2,42.2V19.3l19.8,11.5L24.2,42.2z"/>
				<path id="XMLID_240_" class="st0" d="M22.1,24.3v12.9l11.2-6.5L22.1,24.3z M20.5,40V21.5l16,9.2L20.5,40z"/>
			</g>
		</g>
		<path id="XMLID_235_" class="st0" d="M30.2,7.3c-13,0-23.5,10.5-23.5,23.5s10.5,23.5,23.5,23.5c13,0,23.5-10.5,23.5-23.5
			S43.2,7.3,30.2,7.3z M51.7,30.8c0,11.8-9.6,21.5-21.5,21.5S8.8,42.6,8.8,30.8S18.4,9.3,30.2,9.3S51.7,18.9,51.7,30.8z"/>
	</g>
</g>
</svg>
